<?xml version="1.0" encoding="iso-8859-1"?>
<!-- Generator: Adobe Illustrator 19.0.0, SVG Export Plug-In . SVG Version: 6.00 Build 0)  -->
<svg version="1.1" id="Capa_1" xmlns="http://www.w3.org/2000/svg" xmlns:xlink="http://www.w3.org/1999/xlink" x="0px" y="0px"
	 viewBox="0 0 496.304 496.304" style="enable-background:new 0 0 496.304 496.304;" xml:space="preserve">
<path style="fill:#F0BC5E;" d="M248.152,352.304c-48.52,0-88-39.48-88-88s39.48-88,88-88s88,39.48,88,88
	S296.672,352.304,248.152,352.304z"/>
<path d="M456.152,88.304h-56v-32c0-8.288-5.576-15.632-13.568-17.848L248.152,0L109.72,38.456
	c-7.992,2.216-13.568,9.56-13.568,17.848s5.576,15.632,13.568,17.848l18.432,5.12v9.032h-88c-22.056,0-40,17.944-40,40v280
	c0,22.056,17.944,40,40,40h96v32h-32v16h288v-16h-32v-32h96c22.056,0,40-17.944,40-40v-280
	C496.152,106.248,478.208,88.304,456.152,88.304z M400.152,184.304v40h-16v-40c0-4.408,3.584-8,8-8S400.152,179.896,400.152,184.304
	z M112.152,56.304c0-1.128,0.768-2.128,1.848-2.432l134.152-37.264l134.152,37.264c1.08,0.304,1.848,1.304,1.848,2.432
	s-0.768,2.128-1.848,2.432L248.152,96L114,58.736C112.92,58.432,112.152,57.432,112.152,56.304z M248.152,112.608l104-28.896v30.552
	l-104,29.72l-104-29.712V83.72L248.152,112.608z M40.152,104.304h88v22.032l120,34.288l120-34.288V79.272l16-4.448v86.952
	c-9.288,3.312-16,12.112-16,22.528v56h48v-56c0-10.416-6.712-19.216-16-22.528v-57.472h56c13.232,0,24,10.768,24,24v240h-464v-240
	C16.152,115.072,26.92,104.304,40.152,104.304z M344.152,480.304h-192v-32h192V480.304z M456.152,432.304h-416
	c-13.232,0-24-10.768-24-24v-24h464v24C480.152,421.536,469.384,432.304,456.152,432.304z"/>
<path d="M224.152,217.352v93.896l70.424-46.944L224.152,217.352z M240.152,247.256l25.576,17.048l-25.576,17.056V247.256z"/>
<rect x="200.152" y="400.304" width="96" height="16"/>
<rect x="384.152" y="256.304" width="16" height="16"/>
<rect x="352.152" y="256.304" width="16" height="16"/>
<rect x="128.152" y="256.304" width="16" height="16"/>
<rect x="96.152" y="256.304" width="16" height="16"/>
<rect x="64.152" y="256.304" width="16" height="16"/>
<rect x="416.152" y="256.304" width="16" height="16"/>
<g>
</g>
<g>
</g>
<g>
</g>
<g>
</g>
<g>
</g>
<g>
</g>
<g>
</g>
<g>
</g>
<g>
</g>
<g>
</g>
<g>
</g>
<g>
</g>
<g>
</g>
<g>
</g>
<g>
</g>
</svg>
